<mxfile host="app.diagrams.net" modified="2022-06-07T08:31:18.799Z" agent="5.0 (Macintosh; Intel Mac OS X 10_15_7) AppleWebKit/537.36 (KHTML, like Gecko) Chrome/102.0.5005.61 Safari/537.36" etag="Se5E3zZZxzAeOifjA1Uu" version="19.0.1" type="github">
  <diagram id="DJY0Mr7dxSUuWpH9l4sK" name="Page-1">
    <mxGraphModel dx="2209" dy="764" grid="1" gridSize="10" guides="1" tooltips="1" connect="1" arrows="1" fold="1" page="1" pageScale="1" pageWidth="850" pageHeight="1100" math="0" shadow="0">
      <root>
        <mxCell id="0" />
        <mxCell id="1" parent="0" />
        <mxCell id="3bbdTDh3zmlM17raPETA-42" value="" style="whiteSpace=wrap;html=1;aspect=fixed;shadow=0;sketch=0;fontSize=15;strokeColor=none;strokeWidth=11;fillColor=#CCFFFF;" vertex="1" parent="1">
          <mxGeometry x="420" y="265" width="425" height="425" as="geometry" />
        </mxCell>
        <mxCell id="3bbdTDh3zmlM17raPETA-41" value="" style="whiteSpace=wrap;html=1;aspect=fixed;shadow=0;sketch=0;fontSize=15;strokeColor=none;strokeWidth=11;fillColor=#FFCCCC;" vertex="1" parent="1">
          <mxGeometry y="265" width="425" height="425" as="geometry" />
        </mxCell>
        <mxCell id="3bbdTDh3zmlM17raPETA-1" value="" style="sketch=0;points=[[0,0,0],[0.25,0,0],[0.5,0,0],[0.75,0,0],[1,0,0],[0,1,0],[0.25,1,0],[0.5,1,0],[0.75,1,0],[1,1,0],[0,0.25,0],[0,0.5,0],[0,0.75,0],[1,0.25,0],[1,0.5,0],[1,0.75,0]];outlineConnect=0;fontColor=#232F3E;gradientColor=#FF4F8B;gradientDirection=north;fillColor=#BC1356;strokeColor=#ffffff;dashed=0;verticalLabelPosition=bottom;verticalAlign=top;align=center;html=1;fontSize=12;fontStyle=0;aspect=fixed;shape=mxgraph.aws4.resourceIcon;resIcon=mxgraph.aws4.sqs;" vertex="1" parent="1">
          <mxGeometry x="40" y="360" width="40" height="40" as="geometry" />
        </mxCell>
        <mxCell id="3bbdTDh3zmlM17raPETA-3" value="" style="endArrow=classic;html=1;rounded=0;exitX=1;exitY=0.5;exitDx=0;exitDy=0;exitPerimeter=0;entryX=0;entryY=0.25;entryDx=0;entryDy=0;entryPerimeter=0;edgeStyle=orthogonalEdgeStyle;" edge="1" parent="1" source="3bbdTDh3zmlM17raPETA-1" target="3bbdTDh3zmlM17raPETA-4">
          <mxGeometry width="50" height="50" relative="1" as="geometry">
            <mxPoint x="420" y="490" as="sourcePoint" />
            <mxPoint x="160" y="380" as="targetPoint" />
          </mxGeometry>
        </mxCell>
        <mxCell id="3bbdTDh3zmlM17raPETA-4" value="" style="sketch=0;points=[[0,0,0],[0.25,0,0],[0.5,0,0],[0.75,0,0],[1,0,0],[0,1,0],[0.25,1,0],[0.5,1,0],[0.75,1,0],[1,1,0],[0,0.25,0],[0,0.5,0],[0,0.75,0],[1,0.25,0],[1,0.5,0],[1,0.75,0]];outlineConnect=0;fontColor=#232F3E;gradientColor=#F78E04;gradientDirection=north;fillColor=#D05C17;strokeColor=#ffffff;dashed=0;verticalLabelPosition=bottom;verticalAlign=top;align=center;html=1;fontSize=12;fontStyle=0;aspect=fixed;shape=mxgraph.aws4.resourceIcon;resIcon=mxgraph.aws4.lambda;" vertex="1" parent="1">
          <mxGeometry x="280" y="400" width="40" height="40" as="geometry" />
        </mxCell>
        <mxCell id="3bbdTDh3zmlM17raPETA-5" value="email-sqs-queue" style="text;html=1;strokeColor=none;fillColor=none;align=center;verticalAlign=middle;whiteSpace=wrap;rounded=0;" vertex="1" parent="1">
          <mxGeometry x="7.5" y="330" width="105" height="30" as="geometry" />
        </mxCell>
        <mxCell id="3bbdTDh3zmlM17raPETA-6" value="&lt;strike style=&quot;font-size: 21px;&quot;&gt;email-queue&lt;/strike&gt;&lt;br style=&quot;font-size: 21px;&quot;&gt;&lt;font color=&quot;#00994d&quot; style=&quot;font-size: 21px;&quot;&gt;email-service&lt;/font&gt;" style="text;html=1;strokeColor=none;fillColor=none;align=left;verticalAlign=middle;whiteSpace=wrap;rounded=0;fontSize=21;fontStyle=1" vertex="1" parent="1">
          <mxGeometry x="7.5" y="80" width="163.5" height="60" as="geometry" />
        </mxCell>
        <mxCell id="3bbdTDh3zmlM17raPETA-7" value="" style="sketch=0;points=[[0,0,0],[0.25,0,0],[0.5,0,0],[0.75,0,0],[1,0,0],[0,1,0],[0.25,1,0],[0.5,1,0],[0.75,1,0],[1,1,0],[0,0.25,0],[0,0.5,0],[0,0.75,0],[1,0.25,0],[1,0.5,0],[1,0.75,0]];outlineConnect=0;fontColor=#232F3E;gradientColor=#FF4F8B;gradientDirection=north;fillColor=#BC1356;strokeColor=#ffffff;verticalLabelPosition=bottom;verticalAlign=top;align=center;html=1;fontSize=12;fontStyle=0;aspect=fixed;shape=mxgraph.aws4.resourceIcon;resIcon=mxgraph.aws4.api_gateway;strokeWidth=11;shadow=0;" vertex="1" parent="1">
          <mxGeometry x="160" y="480" width="40" height="40" as="geometry" />
        </mxCell>
        <mxCell id="3bbdTDh3zmlM17raPETA-8" value="" style="sketch=0;aspect=fixed;pointerEvents=1;shadow=0;dashed=0;html=1;strokeColor=none;labelPosition=center;verticalLabelPosition=bottom;verticalAlign=top;align=center;fillColor=#00188D;shape=mxgraph.mscae.enterprise.lock_unlocked;fontColor=#00994D;" vertex="1" parent="1">
          <mxGeometry x="43" y="440" width="37" height="50" as="geometry" />
        </mxCell>
        <mxCell id="3bbdTDh3zmlM17raPETA-9" value="auth" style="text;html=1;strokeColor=none;fillColor=none;align=center;verticalAlign=middle;whiteSpace=wrap;rounded=0;" vertex="1" parent="1">
          <mxGeometry x="15" y="410" width="90" height="30" as="geometry" />
        </mxCell>
        <mxCell id="3bbdTDh3zmlM17raPETA-10" value="&lt;font color=&quot;#00994d&quot;&gt;email-service-api-gateway&lt;/font&gt;" style="text;html=1;strokeColor=none;fillColor=none;align=center;verticalAlign=middle;whiteSpace=wrap;rounded=0;" vertex="1" parent="1">
          <mxGeometry x="135" y="440" width="90" height="35" as="geometry" />
        </mxCell>
        <mxCell id="3bbdTDh3zmlM17raPETA-11" value="" style="aspect=fixed;perimeter=ellipsePerimeter;html=1;align=center;shadow=0;dashed=0;spacingTop=3;image;image=img/lib/active_directory/internet_globe.svg;sketch=0;fontColor=#00994D;strokeColor=#009900;strokeWidth=11;" vertex="1" parent="1">
          <mxGeometry x="40" y="550" width="40" height="40" as="geometry" />
        </mxCell>
        <mxCell id="3bbdTDh3zmlM17raPETA-12" value="mastheads" style="text;html=1;strokeColor=none;fillColor=none;align=center;verticalAlign=middle;whiteSpace=wrap;rounded=0;" vertex="1" parent="1">
          <mxGeometry x="15" y="520" width="90" height="30" as="geometry" />
        </mxCell>
        <mxCell id="3bbdTDh3zmlM17raPETA-14" value="" style="endArrow=classic;html=1;rounded=0;fontColor=#00994D;entryX=0;entryY=0.25;entryDx=0;entryDy=0;entryPerimeter=0;edgeStyle=orthogonalEdgeStyle;strokeColor=#00994D;" edge="1" parent="1" target="3bbdTDh3zmlM17raPETA-7">
          <mxGeometry width="50" height="50" relative="1" as="geometry">
            <mxPoint x="80" y="475" as="sourcePoint" />
            <mxPoint x="130" y="425" as="targetPoint" />
          </mxGeometry>
        </mxCell>
        <mxCell id="3bbdTDh3zmlM17raPETA-16" value="" style="endArrow=classic;startArrow=classic;html=1;rounded=0;fontColor=#00994D;strokeColor=#007FFF;exitX=1;exitY=0.5;exitDx=0;exitDy=0;entryX=0;entryY=0.75;entryDx=0;entryDy=0;entryPerimeter=0;edgeStyle=orthogonalEdgeStyle;" edge="1" parent="1" source="3bbdTDh3zmlM17raPETA-11" target="3bbdTDh3zmlM17raPETA-7">
          <mxGeometry width="50" height="50" relative="1" as="geometry">
            <mxPoint x="400" y="480" as="sourcePoint" />
            <mxPoint x="450" y="430" as="targetPoint" />
          </mxGeometry>
        </mxCell>
        <mxCell id="3bbdTDh3zmlM17raPETA-17" value="" style="endArrow=classic;startArrow=classic;html=1;rounded=0;fontColor=#00994D;strokeColor=#00994D;exitX=1;exitY=0.5;exitDx=0;exitDy=0;exitPerimeter=0;entryX=0;entryY=0.75;entryDx=0;entryDy=0;entryPerimeter=0;edgeStyle=orthogonalEdgeStyle;" edge="1" parent="1" source="3bbdTDh3zmlM17raPETA-7" target="3bbdTDh3zmlM17raPETA-4">
          <mxGeometry width="50" height="50" relative="1" as="geometry">
            <mxPoint x="400" y="480" as="sourcePoint" />
            <mxPoint x="450" y="430" as="targetPoint" />
          </mxGeometry>
        </mxCell>
        <mxCell id="3bbdTDh3zmlM17raPETA-18" value="" style="shape=image;html=1;verticalAlign=top;verticalLabelPosition=bottom;labelBackgroundColor=#ffffff;imageAspect=0;aspect=fixed;image=https://cdn1.iconfinder.com/data/icons/ionicons-fill-vol-2/512/logo-javascript-128.png;shadow=0;sketch=0;fontSize=21;fontColor=#00994D;strokeColor=#009900;strokeWidth=11;" vertex="1" parent="1">
          <mxGeometry x="405" y="310" width="40" height="40" as="geometry" />
        </mxCell>
        <mxCell id="3bbdTDh3zmlM17raPETA-19" value="lambda" style="text;html=1;strokeColor=none;fillColor=none;align=center;verticalAlign=middle;whiteSpace=wrap;rounded=0;" vertex="1" parent="1">
          <mxGeometry x="255" y="370" width="90" height="30" as="geometry" />
        </mxCell>
        <mxCell id="3bbdTDh3zmlM17raPETA-20" value="" style="shape=image;html=1;verticalAlign=top;verticalLabelPosition=bottom;labelBackgroundColor=#ffffff;imageAspect=0;aspect=fixed;image=https://cdn1.iconfinder.com/data/icons/ionicons-fill-vol-2/512/logo-javascript-128.png;shadow=0;sketch=0;fontSize=21;fontColor=#00994D;strokeColor=#009900;strokeWidth=11;" vertex="1" parent="1">
          <mxGeometry x="405" y="360" width="40" height="40" as="geometry" />
        </mxCell>
        <mxCell id="3bbdTDh3zmlM17raPETA-21" value="" style="shape=image;html=1;verticalAlign=top;verticalLabelPosition=bottom;labelBackgroundColor=#ffffff;imageAspect=0;aspect=fixed;image=https://cdn1.iconfinder.com/data/icons/ionicons-fill-vol-2/512/logo-javascript-128.png;shadow=0;sketch=0;fontSize=21;fontColor=#00994D;strokeColor=#009900;strokeWidth=11;" vertex="1" parent="1">
          <mxGeometry x="405" y="440" width="40" height="40" as="geometry" />
        </mxCell>
        <mxCell id="3bbdTDh3zmlM17raPETA-22" value="" style="shape=image;html=1;verticalAlign=top;verticalLabelPosition=bottom;labelBackgroundColor=#ffffff;imageAspect=0;aspect=fixed;image=https://cdn1.iconfinder.com/data/icons/ionicons-fill-vol-2/512/logo-javascript-128.png;shadow=0;sketch=0;fontSize=21;fontColor=#00994D;strokeColor=#009900;strokeWidth=11;" vertex="1" parent="1">
          <mxGeometry x="405" y="490" width="40" height="40" as="geometry" />
        </mxCell>
        <mxCell id="3bbdTDh3zmlM17raPETA-25" value="" style="sketch=0;aspect=fixed;html=1;points=[];align=center;image;fontSize=12;image=img/lib/mscae/SendGrid_Accounts.svg;shadow=0;fontColor=#00994D;strokeColor=#009900;strokeWidth=11;" vertex="1" parent="1">
          <mxGeometry x="640" y="425" width="80" height="80" as="geometry" />
        </mxCell>
        <mxCell id="3bbdTDh3zmlM17raPETA-26" value="sendgrid" style="text;html=1;strokeColor=none;fillColor=none;align=center;verticalAlign=middle;whiteSpace=wrap;rounded=0;" vertex="1" parent="1">
          <mxGeometry x="630" y="390" width="100" height="30" as="geometry" />
        </mxCell>
        <mxCell id="3bbdTDh3zmlM17raPETA-27" value="message-handlers" style="text;html=1;strokeColor=none;fillColor=none;align=center;verticalAlign=middle;whiteSpace=wrap;rounded=0;" vertex="1" parent="1">
          <mxGeometry x="380" y="270" width="90" height="30" as="geometry" />
        </mxCell>
        <mxCell id="3bbdTDh3zmlM17raPETA-28" value="route-handlers" style="text;html=1;strokeColor=none;fillColor=none;align=center;verticalAlign=middle;whiteSpace=wrap;rounded=0;" vertex="1" parent="1">
          <mxGeometry x="380" y="405" width="90" height="30" as="geometry" />
        </mxCell>
        <mxCell id="3bbdTDh3zmlM17raPETA-29" value="" style="endArrow=classic;html=1;rounded=0;fontSize=21;fontColor=#00994D;strokeColor=#000000;exitX=0.709;exitY=1.011;exitDx=0;exitDy=0;exitPerimeter=0;entryX=0;entryY=0.5;entryDx=0;entryDy=0;edgeStyle=orthogonalEdgeStyle;" edge="1" parent="1" source="3bbdTDh3zmlM17raPETA-19" target="3bbdTDh3zmlM17raPETA-18">
          <mxGeometry width="50" height="50" relative="1" as="geometry">
            <mxPoint x="580" y="380" as="sourcePoint" />
            <mxPoint x="630" y="330" as="targetPoint" />
            <Array as="points">
              <mxPoint x="375" y="400" />
              <mxPoint x="375" y="330" />
            </Array>
          </mxGeometry>
        </mxCell>
        <mxCell id="3bbdTDh3zmlM17raPETA-31" value="" style="endArrow=classic;html=1;rounded=0;fontSize=21;fontColor=#00994D;strokeColor=#000000;exitX=1;exitY=0.25;exitDx=0;exitDy=0;exitPerimeter=0;entryX=0;entryY=0.5;entryDx=0;entryDy=0;edgeStyle=orthogonalEdgeStyle;" edge="1" parent="1" source="3bbdTDh3zmlM17raPETA-4" target="3bbdTDh3zmlM17raPETA-20">
          <mxGeometry width="50" height="50" relative="1" as="geometry">
            <mxPoint x="580" y="390" as="sourcePoint" />
            <mxPoint x="630" y="340" as="targetPoint" />
            <Array as="points">
              <mxPoint x="380" y="410" />
              <mxPoint x="380" y="380" />
            </Array>
          </mxGeometry>
        </mxCell>
        <mxCell id="3bbdTDh3zmlM17raPETA-32" value="" style="endArrow=classic;startArrow=classic;html=1;rounded=0;fontSize=21;fontColor=#00994D;strokeColor=#00994D;exitX=1;exitY=0.5;exitDx=0;exitDy=0;exitPerimeter=0;entryX=0;entryY=0.5;entryDx=0;entryDy=0;edgeStyle=orthogonalEdgeStyle;" edge="1" parent="1" source="3bbdTDh3zmlM17raPETA-4" target="3bbdTDh3zmlM17raPETA-21">
          <mxGeometry width="50" height="50" relative="1" as="geometry">
            <mxPoint x="580" y="390" as="sourcePoint" />
            <mxPoint x="630" y="340" as="targetPoint" />
          </mxGeometry>
        </mxCell>
        <mxCell id="3bbdTDh3zmlM17raPETA-33" value="" style="endArrow=classic;startArrow=classic;html=1;rounded=0;fontSize=21;fontColor=#00994D;strokeColor=#007FFF;exitX=1;exitY=0.75;exitDx=0;exitDy=0;exitPerimeter=0;entryX=0;entryY=0.5;entryDx=0;entryDy=0;edgeStyle=orthogonalEdgeStyle;" edge="1" parent="1" source="3bbdTDh3zmlM17raPETA-4" target="3bbdTDh3zmlM17raPETA-22">
          <mxGeometry width="50" height="50" relative="1" as="geometry">
            <mxPoint x="580" y="390" as="sourcePoint" />
            <mxPoint x="630" y="340" as="targetPoint" />
            <Array as="points">
              <mxPoint x="350" y="430" />
              <mxPoint x="350" y="510" />
            </Array>
          </mxGeometry>
        </mxCell>
        <mxCell id="3bbdTDh3zmlM17raPETA-34" value="" style="endArrow=classic;startArrow=classic;html=1;rounded=0;fontSize=21;fontColor=#00994D;strokeColor=#00994D;entryX=-0.001;entryY=0.435;entryDx=0;entryDy=0;entryPerimeter=0;" edge="1" parent="1" source="3bbdTDh3zmlM17raPETA-21" target="3bbdTDh3zmlM17raPETA-25">
          <mxGeometry width="50" height="50" relative="1" as="geometry">
            <mxPoint x="580" y="390" as="sourcePoint" />
            <mxPoint x="630" y="340" as="targetPoint" />
          </mxGeometry>
        </mxCell>
        <mxCell id="3bbdTDh3zmlM17raPETA-35" value="" style="endArrow=classic;startArrow=classic;html=1;rounded=0;fontSize=21;fontColor=#00994D;strokeColor=#007FFF;exitX=1;exitY=0.5;exitDx=0;exitDy=0;entryX=0.006;entryY=0.712;entryDx=0;entryDy=0;entryPerimeter=0;edgeStyle=orthogonalEdgeStyle;" edge="1" parent="1" source="3bbdTDh3zmlM17raPETA-22" target="3bbdTDh3zmlM17raPETA-25">
          <mxGeometry width="50" height="50" relative="1" as="geometry">
            <mxPoint x="580" y="390" as="sourcePoint" />
            <mxPoint x="630" y="340" as="targetPoint" />
          </mxGeometry>
        </mxCell>
        <mxCell id="3bbdTDh3zmlM17raPETA-38" value="&lt;font style=&quot;font-size: 15px;&quot;&gt;existing email-queue&lt;br&gt;&lt;/font&gt;&lt;font style=&quot;font-size: 15px;&quot;&gt;&lt;font color=&quot;#00994d&quot;&gt;email-service - jakubs work&lt;/font&gt;&lt;br&gt;&lt;font color=&quot;#3399ff&quot;&gt;email-preference-center work&lt;/font&gt;&lt;br&gt;&lt;/font&gt;" style="text;html=1;strokeColor=none;fillColor=none;align=left;verticalAlign=middle;whiteSpace=wrap;rounded=0;fontSize=15;fontStyle=1" vertex="1" parent="1">
          <mxGeometry x="7.5" y="180" width="280" height="90" as="geometry" />
        </mxCell>
        <mxCell id="3bbdTDh3zmlM17raPETA-39" value="" style="endArrow=classic;html=1;rounded=0;fontSize=15;fontColor=#00994D;strokeColor=#000000;exitX=1;exitY=0.5;exitDx=0;exitDy=0;edgeStyle=orthogonalEdgeStyle;entryX=-0.008;entryY=0.205;entryDx=0;entryDy=0;entryPerimeter=0;" edge="1" parent="1" source="3bbdTDh3zmlM17raPETA-20" target="3bbdTDh3zmlM17raPETA-25">
          <mxGeometry width="50" height="50" relative="1" as="geometry">
            <mxPoint x="610" y="400" as="sourcePoint" />
            <mxPoint x="660" y="350" as="targetPoint" />
          </mxGeometry>
        </mxCell>
        <mxCell id="3bbdTDh3zmlM17raPETA-40" value="" style="endArrow=classic;html=1;rounded=0;fontSize=15;fontColor=#00994D;strokeColor=#000000;exitX=1;exitY=0.5;exitDx=0;exitDy=0;entryX=-0.001;entryY=-0.025;entryDx=0;entryDy=0;entryPerimeter=0;edgeStyle=orthogonalEdgeStyle;" edge="1" parent="1" source="3bbdTDh3zmlM17raPETA-18" target="3bbdTDh3zmlM17raPETA-25">
          <mxGeometry width="50" height="50" relative="1" as="geometry">
            <mxPoint x="610" y="400" as="sourcePoint" />
            <mxPoint x="660" y="350" as="targetPoint" />
            <Array as="points">
              <mxPoint x="570" y="330" />
              <mxPoint x="570" y="423" />
            </Array>
          </mxGeometry>
        </mxCell>
        <mxCell id="3bbdTDh3zmlM17raPETA-43" value="&lt;font style=&quot;font-size: 15px;&quot;&gt;&lt;span style=&quot;font-weight: normal;&quot;&gt;email provider agnostic&lt;/span&gt;&lt;br&gt;&lt;/font&gt;" style="text;html=1;strokeColor=none;fillColor=none;align=left;verticalAlign=middle;whiteSpace=wrap;rounded=0;fontSize=15;fontStyle=1" vertex="1" parent="1">
          <mxGeometry x="130" y="630" width="190" height="60" as="geometry" />
        </mxCell>
        <mxCell id="3bbdTDh3zmlM17raPETA-44" value="&lt;font style=&quot;font-size: 15px;&quot;&gt;&lt;span style=&quot;font-weight: normal;&quot;&gt;sendgrid specific calls and return types&lt;/span&gt;&lt;br&gt;&lt;/font&gt;" style="text;html=1;strokeColor=none;fillColor=none;align=left;verticalAlign=middle;whiteSpace=wrap;rounded=0;fontSize=15;fontStyle=1" vertex="1" parent="1">
          <mxGeometry x="540" y="630" width="190" height="60" as="geometry" />
        </mxCell>
      </root>
    </mxGraphModel>
  </diagram>
</mxfile>
